# xmcd
#
# Track frame offsets: 
#        150
#        15445
#        28705
#        42622
#        56880
#        75277
#        90397
#        101625
#        112917
#        126405
#        137790
#        150162
#        171912
#        189460
#        203307
#        219672
#        235307
#        246805
#        263512
#        285087
#
# Disc length: 3952 seconds
#
# Revision: 3
# Processed by: cddbd v1.5.2PL0 Copyright (c) Steve Scherf et al.
# Submitted via: ExactAudioCopyFreeDBPlugin 1.0
#
DISCID=fe0f6e14
DTITLE=Various Artist - Rhythm, Love and Soul^ The Sexiest Songs of R
DTITLE=&B [disc 1]
DYEAR=2003
DGENRE=R&B
TTITLE0=Cornelius Brothers and Sister Rose - Too Late to Turn Back Now
TTITLE1=The Stylistics - You Are Everything
TTITLE2=Charles Wright and The Watts 103Rd Street Rythm Band - Love Land
TTITLE3=Martha and The Vandellas - My Baby Loves Me
TTITLE4=The Dells - Oh, What a Night
TTITLE5=The Flamingos - I Only Have Eyes for You
TTITLE6=Little Anthony and The Imperials - Goin' Out of My Head
TTITLE7=The Drifters - This Magic Moment
TTITLE8=The Three Degrees - When Will I See You Again
TTITLE9=Barbara Lewis - Make Me Your Baby
TTITLE10=The Miracles - Ooo Baby Baby
TTITLE11=Love Unlimited - Walkin' in the Rain with the One I Love
TTITLE12=The Temptations - Just My Imagination
TTITLE13=Billy Stewart - I Do Love You
TTITLE14=Isaac Hayes - Never Can Say Goodbye
TTITLE15=Al Wilson - Show and Tell
TTITLE16=Wilson Pickett - I'm in Love
TTITLE17=Heatwave - Always and Forever
TTITLE18=Billy Paul - Me and Mrs. Jones
TTITLE19=Solomon Burke - If You Need Me
EXTD=
EXTT0=
EXTT1=
EXTT2=
EXTT3=
EXTT4=
EXTT5=
EXTT6=
EXTT7=
EXTT8=
EXTT9=
EXTT10=
EXTT11=
EXTT12=
EXTT13=
EXTT14=
EXTT15=
EXTT16=
EXTT17=
EXTT18=
EXTT19=
PLAYORDER=
